<?xml version="1.0" encoding="UTF-8"?>
<svg xmlns="http://www.w3.org/2000/svg" xmlns:xlink="http://www.w3.org/1999/xlink" width="48pt" height="48pt" viewBox="0 0 48 48" version="1.1">
<g id="surface5672526">
<path style=" stroke:none;fill-rule:nonzero;fill:rgb(55.29412%,27.843139%,67.843139%);fill-opacity:1;" d="M 41.007812 26.488281 L 40.398438 24.25 L 44.097656 23.558594 L 40.425781 22.734375 L 43.878906 21.238281 L 40.117188 21.25 L 43.152344 19.027344 L 39.488281 19.875 L 41.949219 17.03125 L 38.5625 18.675781 L 40.332031 15.355469 L 37.398438 17.710938 L 38.382812 14.078125 L 36.050781 17.027344 L 36.195312 13.269531 L 34.578125 16.664062 L 33.890625 12.964844 L 33.0625 16.636719 L 31.570312 13.183594 L 31.578125 16.945312 L 29.96875 17.371094 L 27.363281 15.113281 L 29.003906 18.496094 L 25.6875 16.730469 L 28.039062 19.660156 L 24.410156 18.679688 L 27.355469 21.015625 L 23.601562 20.863281 L 26.992188 22.484375 L 23.296875 23.171875 L 26.964844 24 L 24.941406 24.875 L 17.125 24.875 L 17.125 29.5 L 34.460938 29.5 L 39 30 L 38.828125 29.5 L 39 29.5 L 39 28.558594 L 39.515625 28.835938 L 40.769531 28.835938 L 39.355469 27.070312 L 42.984375 28.054688 Z M 41.007812 26.488281 "/>
<path style=" stroke:none;fill-rule:nonzero;fill:rgb(28.235295%,45.09804%,36.470589%);fill-opacity:1;" d="M 38.265625 23.789062 C 37.382812 23.789062 36.558594 24.007812 35.8125 24.363281 L 38.375 29.125 L 34.375 25.25 L 19.375 29.625 L 33.125 24.375 L 25.5 21.5 L 34.539062 23.582031 L 34.804688 23.636719 C 34.8125 23.664062 34.839844 23.269531 34.839844 22.867188 C 34.839844 17.617188 30.570312 13.363281 25.304688 13.363281 C 20.929688 13.363281 17.246094 16.300781 16.128906 20.308594 C 15.382812 19.605469 14.378906 19.175781 13.277344 19.175781 C 10.972656 19.175781 9.109375 21.035156 9.109375 23.328125 C 9.109375 23.789062 9.1875 24.234375 9.328125 24.644531 C 9.136719 24.628906 8.9375 24.617188 8.742188 24.617188 C 5.570312 24.617188 3 27.179688 3 30.339844 C 3 30.917969 3.089844 31.476562 3.25 32 L 43.421875 32 C 43.789062 31.246094 44 30.402344 44 29.511719 C 44 26.347656 41.433594 23.789062 38.265625 23.789062 Z M 38.265625 23.789062 "/>
<path style=" stroke:none;fill-rule:nonzero;fill:rgb(43.137255%,54.509807%,41.176471%);fill-opacity:1;" d="M 25.5 19 C 28.351562 19 30.953125 20.042969 32.964844 21.761719 C 32.589844 17.96875 29.390625 15 25.5 15 C 21.609375 15 18.410156 17.96875 18.035156 21.761719 C 20.046875 20.042969 22.648438 19 25.5 19 Z M 14.738281 22.027344 C 14.394531 21.417969 13.75 21 13 21 C 11.894531 21 11 21.894531 11 23 C 11 23.464844 11.164062 23.886719 11.433594 24.226562 C 12.050781 22.988281 13.28125 22.121094 14.738281 22.027344 Z M 7.050781 32 C 7.300781 29.265625 9.53125 27.105469 12.308594 27.011719 C 11.535156 26.386719 10.566406 26 9.5 26 C 7.015625 26 5 28.015625 5 30.5 C 5 31.027344 5.101562 31.53125 5.269531 32 Z M 7.050781 32 "/>
</g>
</svg>
